<svg
  width="17"
  height="23"
  viewBox="0 0 17 23"
  fill="none"
  xmlns="http://www.w3.org/2000/svg"
>
<path
    d="M13.75 0.75H2.75C1.20312 0.75 0 1.99609 0 3.5V20C0 21.5469 1.20312 22.75 2.75 22.75H13.75C15.2539 22.75 16.5 21.5469 16.5 20V3.5C16.5 1.99609 15.2539 0.75 13.75 0.75ZM8.9375 15.875H3.4375C3.05078 15.875 2.75 15.5742 2.75 15.1875C2.75 14.8438 3.05078 14.5 3.4375 14.5H8.9375C9.28125 14.5 9.625 14.8438 9.625 15.1875C9.625 15.5742 9.28125 15.875 8.9375 15.875ZM13.0625 11.75H3.4375C3.05078 11.75 2.75 11.4492 2.75 11.0625C2.75 10.7188 3.05078 10.375 3.4375 10.375H13.0625C13.4062 10.375 13.75 10.7188 13.75 11.0625C13.75 11.4492 13.4062 11.75 13.0625 11.75ZM13.0625 7.625H3.4375C3.05078 7.625 2.75 7.32422 2.75 6.9375C2.75 6.59375 3.05078 6.25 3.4375 6.25H13.0625C13.4062 6.25 13.75 6.59375 13.75 6.9375C13.75 7.32422 13.4062 7.625 13.0625 7.625Z"
    fill="#798AA4"
  />
</svg>
