<svg
  width="11"
  height="15"
  viewBox="0 0 11 15"
  fill="none"
  xmlns="http://www.w3.org/2000/svg"
>
<path
    d="M6.04297 1.37891C5.82422 0.585938 4.67578 0.558594 4.42969 1.37891C3.17188 5.67188 0.4375 6.84766 0.4375 9.88281C0.4375 12.5898 2.57031 14.75 5.25 14.75C7.90234 14.75 10.0625 12.5898 10.0625 9.88281C10.0625 6.84766 7.32812 5.69922 6.04297 1.37891ZM5.25 13C3.55469 13 2.1875 11.6328 2.1875 9.96484C2.1875 9.74609 2.37891 9.52734 2.625 9.52734C2.84375 9.52734 3.0625 9.74609 3.0625 9.96484C3.0625 11.1953 4.01953 12.125 5.25 12.125C5.46875 12.125 5.6875 12.3438 5.6875 12.5625C5.6875 12.8086 5.46875 13 5.25 13Z"
    fill="#1854C4"
  />
</svg>
