<svg
  width="16"
  height="15"
  viewBox="0 0 16 15"
  fill="none"
  xmlns="http://www.w3.org/2000/svg"
>
<path
    d="M14.5898 2.80078L12.9492 1.16016C12.457 0.640625 11.6094 0.640625 11.0898 1.16016L9.55859 2.69141L13.0312 6.19141L14.5898 4.66016C15.1094 4.14062 15.1094 3.29297 14.5898 2.80078ZM1.84766 10.4023C1.76562 10.457 1.73828 10.5391 1.71094 10.6211L1 14.2031C0.945312 14.5039 1.16406 14.75 1.41016 14.75C1.4375 14.75 1.49219 14.75 1.51953 14.75L5.10156 14.0391C5.18359 14.0117 5.26562 13.9844 5.34766 13.9023L12.4297 6.82031L8.92969 3.32031L1.84766 10.4023ZM4.58203 12.8086L2.53125 13.2188L2.94141 11.168L3.625 10.4844V12.125H5.26562L4.58203 12.8086Z"
    fill="#798AA4"
  />
</svg>
